<svg width="10" height="13" viewBox="0 0 10 13" fill="none" xmlns="http://www.w3.org/2000/svg">
<path d="M10 5.3C10 8.11298 6.94721 10.926 5.61242 12.0214C5.2535 12.316 4.7465 12.316 4.38758 12.0214C3.0528 10.926 0 8.11298 0 5.3C0 4.02696 0.526784 2.80606 1.46447 1.90589C2.40215 1.00571 3.67392 0.5 5 0.5C6.32608 0.5 7.59785 1.00571 8.53553 1.90589C9.47322 2.80606 10 4.02696 10 5.3Z" fill="white"/>
<path d="M5 7.31081C6.10457 7.31081 7 6.43958 7 5.36486C7 4.29014 6.10457 3.41891 5 3.41891C3.89543 3.41891 3 4.29014 3 5.36486C3 6.43958 3.89543 7.31081 5 7.31081Z" fill="#FC4F00"/>
</svg>
