<svg width="24" height="24" viewBox="0 0 24 24" fill="none" xmlns="http://www.w3.org/2000/svg">
<path d="M23 1.99762V7.99762H17" stroke="white" stroke-width="2" stroke-linecap="round" stroke-linejoin="round"/>
<path d="M1 21.9976V15.9976H7" stroke="white" stroke-width="2" stroke-linecap="round" stroke-linejoin="round"/>
<path d="M3.51 6.99763C4.01717 5.56442 4.87913 4.28304 6.01547 3.27305C7.1518 2.26307 8.52547 1.5574 10.0083 1.22189C11.4911 0.886385 13.0348 0.931975 14.4952 1.35441C15.9556 1.77684 17.2853 2.56235 18.36 3.63763L23 7.99763M1 15.9976L5.64 20.3576C6.71475 21.4329 8.04437 22.2184 9.50481 22.6409C10.9652 23.0633 12.5089 23.1089 13.9917 22.7734C15.4745 22.4379 16.8482 21.7322 17.9845 20.7222C19.1209 19.7122 19.9828 18.4308 20.49 16.9976" stroke="white" stroke-width="2" stroke-linecap="round" stroke-linejoin="round"/>
</svg>
