<svg width="24" height="24" viewBox="0 0 24 24" fill="none" xmlns="http://www.w3.org/2000/svg">
<path fill-rule="evenodd" clip-rule="evenodd" d="M11.9963 6.99248H22.0001C23.1046 6.99248 24.0001 7.88791 24.0001 8.99248V16.9173H24V18H0.541353C0.242372 18 0 17.7576 0 17.4586C0 17.1597 0.242372 16.9173 0.541353 16.9173H0.999928C0.99602 16.9076 8.36338e-05 14.4342 0 13.4436C-2.49549e-05 13.1479 0.0887494 12.72 0.239862 12.2256H6.36363C6.68998 12.2256 6.95454 11.961 6.95454 11.6347V9.56835C6.95454 9.242 6.68998 8.97744 6.36363 8.97744H1.68773C1.79106 8.80308 1.89553 8.63673 2 8.4812C2.86433 7.19446 3.49715 7.01989 4.49875 6.9962L4.50006 6.99248H5H6.00371C6.04955 6.43673 6.51513 6 7.08271 6H10.9173C11.4849 6 11.9504 6.43673 11.9963 6.99248ZM1.00014 16.9171L1.00006 16.9173H0.999962L1.00014 16.9171ZM24 8.97744H9.81817C9.49182 8.97744 9.22726 9.242 9.22726 9.56835V11.6347C9.22726 11.961 9.49182 12.2256 9.81817 12.2256H24V8.97744Z" fill="black"/>
</svg>
